<svg xmlns="http://www.w3.org/2000/svg" version="1.1" xmlns:xlink="http://www.w3.org/1999/xlink" xmlns:svgjs="http://svgjs.com/svgjs" width="20" height="20" x="0" y="0" viewBox="0 0 64 64" style="enable-background:new 0 0 512 512" xml:space="preserve" class=""><g><g data-name="Fullscreen-Arrow-Arrows-Direction-User Interface"><path d="M61 45v14a2.006 2.006 0 0 1-2 2H45a3 3 0 0 1 0-6h5.76L36.25 40.49a3 3 0 0 1 4.24-4.24L55 50.76V45a3 3 0 0 1 6 0zM61 5v14a3 3 0 0 1-6 0v-5.76L40.49 27.75a3 3 0 1 1-4.24-4.24L50.76 9H45a3 3 0 0 1 0-6h14a2.006 2.006 0 0 1 2 2zM27.75 23.51a3 3 0 1 1-4.24 4.24L9 13.24V19a3 3 0 0 1-6 0V5a2.006 2.006 0 0 1 2-2h14a3 3 0 0 1 0 6h-5.76zM27.75 36.25a2.994 2.994 0 0 1 0 4.24L13.24 55H19a3 3 0 0 1 0 6H5a2.006 2.006 0 0 1-2-2V45a3 3 0 0 1 6 0v5.76l14.51-14.51a3 3 0 0 1 4.24 0z" fill="#ffffff" data-original="#000000" class=""></path></g></g></svg>